<svg width="24" height="25" viewBox="0 0 24 25" fill="none" xmlns="http://www.w3.org/2000/svg">
<g clip-path="url(#clip0_1_1224)">
<path fill-rule="evenodd" clip-rule="evenodd" d="M24 12.3967C24 19.0241 18.6274 24.3967 12 24.3967C5.37258 24.3967 0 19.0241 0 12.3967C0 5.76931 5.37258 0.396729 12 0.396729C18.6274 0.396729 24 5.76931 24 12.3967ZM12.43 9.25566C11.2628 9.74113 8.93014 10.7459 5.43189 12.2701C4.86383 12.4959 4.56626 12.7169 4.53917 12.933C4.49339 13.2982 4.95071 13.442 5.57347 13.6378C5.65818 13.6645 5.74595 13.6921 5.83594 13.7213C6.44864 13.9205 7.27283 14.1535 7.70129 14.1628C8.08994 14.1712 8.52373 14.0109 9.00264 13.6821C12.2712 11.4757 13.9584 10.3605 14.0643 10.3365C14.139 10.3195 14.2426 10.2982 14.3128 10.3606C14.3829 10.4229 14.376 10.541 14.3686 10.5727C14.3233 10.7659 12.5281 12.4348 11.5991 13.2985C11.3095 13.5678 11.1041 13.7587 11.0621 13.8024C10.968 13.9001 10.8721 13.9925 10.78 14.0813C10.2108 14.6301 9.78391 15.0415 10.8036 15.7135C11.2936 16.0364 11.6858 16.3035 12.077 16.5699C12.5042 16.8608 12.9303 17.151 13.4816 17.5124C13.6221 17.6045 13.7562 17.7001 13.8869 17.7933C14.3841 18.1477 14.8307 18.4661 15.3826 18.4154C15.7032 18.3859 16.0345 18.0843 16.2027 17.1851C16.6002 15.0599 17.3816 10.4552 17.5622 8.5577C17.578 8.39146 17.5581 8.1787 17.5422 8.0853C17.5262 7.99191 17.4928 7.85884 17.3714 7.76033C17.2276 7.64367 17.0056 7.61906 16.9064 7.62081C16.455 7.62876 15.7626 7.86955 12.43 9.25566Z" fill="#007AFF"/>
</g>
<defs>
<clipPath id="clip0_1_1224">
<rect width="24" height="24" fill="white" transform="translate(0 0.396729)"/>
</clipPath>
</defs>
</svg>
