<svg width="24" height="25" viewBox="0 0 24 25" fill="none" xmlns="http://www.w3.org/2000/svg">
<g clip-path="url(#clip0_1_1225)">
<path d="M17.0725 0.396729H13.0278V16.7445C13.0278 18.6924 11.4722 20.2924 9.53626 20.2924C7.60034 20.2924 6.04469 18.6924 6.04469 16.7445C6.04469 14.8315 7.56577 13.2663 9.43257 13.1967V9.0924C5.31872 9.16193 2 12.5359 2 16.7445C2 20.9881 5.38786 24.3967 9.57085 24.3967C13.7538 24.3967 17.1416 20.9533 17.1416 16.7445V8.36193C18.6627 9.475 20.5295 10.1359 22.5 10.1707V6.0663C19.4579 5.96195 17.0725 3.4576 17.0725 0.396729Z" fill="#007AFF"/>
</g>
<defs>
<clipPath id="clip0_1_1225">
<rect width="24" height="24" fill="white" transform="translate(0 0.396729)"/>
</clipPath>
</defs>
</svg>
