<svg width="28" height="28" viewBox="0 0 28 28" fill="none" xmlns="http://www.w3.org/2000/svg">
<path fill-rule="evenodd" clip-rule="evenodd" d="M18.6587 7.75885H9.34136C4.61661 7.75885 2.25423 7.75885 0.927245 9.14041C-0.399744 10.522 -0.0875242 12.6564 0.536916 16.9254L1.12907 20.9736C1.61876 24.3213 1.86361 25.9952 3.11967 26.9976C4.37574 28 6.22832 28 9.93348 28H18.0665C21.7717 28 23.6243 28 24.8803 26.9976C26.1364 25.9952 26.3812 24.3213 26.8709 20.9736L27.4631 16.9254C28.0875 12.6565 28.3997 10.522 27.0728 9.14041C25.7458 7.75885 23.3834 7.75885 18.6587 7.75885ZM17.6137 19.3119C18.3954 18.8273 18.3954 17.5727 17.6137 17.0881L12.8935 14.1619C12.1337 13.6909 11.2 14.3039 11.2 15.2738V21.1262C11.2 22.096 12.1337 22.7091 12.8935 22.2381L17.6137 19.3119Z" fill="white"/>
<path opacity="0.4" d="M9.11387 9.65773e-06H18.886C19.2115 -7.07733e-05 19.461 -0.000132384 19.6792 0.0212056C21.2301 0.172921 22.4996 1.10541 23.0379 2.36149H4.96201C5.50033 1.10541 6.76978 0.172921 8.32073 0.0212056C8.53886 -0.000132465 8.78839 -7.07733e-05 9.11387 9.65773e-06Z" fill="white"/>
<path opacity="0.7" d="M6.03476 3.81177C4.08789 3.81177 2.49152 4.98742 1.95878 6.54708C1.94767 6.57959 1.93703 6.61227 1.92685 6.64511C2.48426 6.47631 3.06437 6.36604 3.65162 6.29075C5.16415 6.09684 7.07562 6.09694 9.29607 6.09706H18.945C21.1655 6.09694 23.0769 6.09684 24.5894 6.29075C25.1767 6.36604 25.7568 6.47631 26.3142 6.64511C26.304 6.61227 26.2934 6.57959 26.2823 6.54708C25.7495 4.98742 24.1532 3.81177 22.2063 3.81177H6.03476Z" fill="white"/>
</svg>
