<svg width="24" height="25" viewBox="0 0 24 25" fill="none" xmlns="http://www.w3.org/2000/svg">
<g clip-path="url(#clip0_1_1223)">
<path fill-rule="evenodd" clip-rule="evenodd" d="M1.68707 2.08379C0 3.77086 0 6.48613 0 11.9167V12.8767C0 18.3073 0 21.0226 1.68707 22.7097C3.37413 24.3967 6.0894 24.3967 11.52 24.3967H12.48C17.9106 24.3967 20.6259 24.3967 22.313 22.7097C24 21.0226 24 18.3073 24 12.8767V11.9167C24 6.48613 24 3.77086 22.313 2.08379C20.6259 0.396729 17.9106 0.396729 12.48 0.396729H11.52C6.0894 0.396729 3.37413 0.396729 1.68707 2.08379ZM4.05006 7.69678C4.18006 13.9368 7.30005 17.6868 12.7701 17.6868H13.0801V14.1168C15.0901 14.3168 16.61 15.7868 17.22 17.6868H20.06C19.28 14.8468 17.2299 13.2768 15.95 12.6768C17.2299 11.9368 19.0299 10.1368 19.4599 7.69678H16.8799C16.3199 9.67678 14.6601 11.4768 13.0801 11.6468V7.69678H10.5V14.6168C8.9 14.2168 6.88005 12.2768 6.79005 7.69678H4.05006Z" fill="#007AFF"/>
</g>
<defs>
<clipPath id="clip0_1_1223">
<rect width="24" height="24" fill="white" transform="translate(0 0.396729)"/>
</clipPath>
</defs>
</svg>
