<svg width="100" height="26" viewBox="0 0 100 26" fill="none" xmlns="http://www.w3.org/2000/svg">
<path d="M36.3111 19.9134H63.9767V14.4986H43.6414V11.6332H62.476V8.28024H43.6414V5.41483H63.9767V0H36.3111V19.9134Z" fill="#007AFF"/>
<path d="M30.8455 19.97V0H23.5271V14.5398H7.31841V0H0V19.97H27.5533L27.5602 25.3968H34.8703V19.97H30.8455Z" fill="#007AFF"/>
<path d="M93.0373 0L84.0056 6.0939L74.9747 0H68.0113V5.41483H71.5263L78.269 9.9646L71.5502 14.4986H68.0113V19.9134H74.9987L84.0056 13.8352L93.0135 19.9134H100V14.4986H96.4611L89.7421 9.9646L96.4849 5.41483H100V0H93.0373Z" fill="#007AFF"/>
</svg>
