<svg width="100" height="42" viewBox="0 0 100 42" fill="none" xmlns="http://www.w3.org/2000/svg">
<path d="M36.3111 20.6595H63.9767V15.2447H43.6414V12.3793H62.476V9.02633H43.6414V6.16093H63.9767V0.746094H36.3111V20.6595Z" fill="#007AFF"/>
<path d="M30.8455 20.7161V0.746094H23.5271V15.2859H7.31841V0.746094H0V20.7161H27.5533L27.5602 26.1429H34.8703V20.7161H30.8455Z" fill="#007AFF"/>
<path d="M93.0373 0.746094L84.0056 6.84L74.9747 0.746094H68.0113V6.16093H71.5263L78.269 10.7107L71.5502 15.2447H68.0113V20.6595H74.9987L84.0056 14.5813L93.0135 20.6595H100V15.2447H96.4611L89.7421 10.7107L96.4849 6.16093H100V0.746094H93.0373Z" fill="#007AFF"/>
<g clip-path="url(#clip0_45_125)">
<path d="M9.45283 30.2692H12.6401V40.3199H9.45283V30.2692ZM0 30.2692H3.20089V40.3199H0V30.2692ZM1.34846 32.4871V30.2692H10.5289V32.4871H1.34846ZM21.9089 40.4603C20.8193 40.4603 19.8159 40.3527 18.8987 40.1374C17.9816 39.9222 17.1825 39.604 16.5015 39.1829C15.8295 38.7618 15.3029 38.2377 14.9215 37.6107C14.5492 36.9743 14.363 36.235 14.363 35.3928C14.363 34.5506 14.5446 33.8066 14.9079 33.1609C15.2802 32.5058 15.8023 31.9583 16.4742 31.5185C17.1462 31.0693 17.9407 30.7277 18.8579 30.4938C19.775 30.2598 20.792 30.1428 21.9089 30.1428C22.9895 30.1428 23.9884 30.2551 24.9055 30.4797C25.8226 30.695 26.6263 31.0178 27.3164 31.4483C28.0065 31.8788 28.5377 32.4122 28.91 33.0486C29.2914 33.6756 29.4821 34.4102 29.4821 35.2524C29.4821 36.0947 29.2914 36.8386 28.91 37.4844C28.5377 38.1301 28.0065 38.6729 27.3164 39.1127C26.6263 39.5525 25.8226 39.8894 24.9055 40.1234C23.9884 40.348 22.9895 40.4603 21.9089 40.4603ZM21.8953 38.2003C22.758 38.2003 23.5026 38.1067 24.1291 37.9195C24.7648 37.723 25.2597 37.4095 25.6138 36.979C25.977 36.5485 26.1586 35.9917 26.1586 35.3086C26.1586 34.7845 26.0542 34.34 25.8453 33.975C25.6456 33.6007 25.355 33.3012 24.9736 33.0766C24.6013 32.8427 24.1518 32.6695 23.6252 32.5572C23.1076 32.445 22.5355 32.3888 21.9089 32.3888C21.2551 32.3888 20.6649 32.445 20.1382 32.5572C19.6206 32.6695 19.1802 32.8427 18.817 33.0766C18.4629 33.3012 18.1859 33.6007 17.9861 33.975C17.7955 34.34 17.7001 34.7845 17.7001 35.3086C17.7001 35.9917 17.8772 36.5485 18.2313 36.979C18.5855 37.4095 19.0758 37.723 19.7024 37.9195C20.338 38.1067 21.069 38.2003 21.8953 38.2003ZM31.2054 30.2692H34.4336V40.3199H31.2054V30.2692ZM32.0499 40.3199V38.102H42.0069V40.3199H32.0499ZM32.0499 36.2491V34.0452H40.8082V36.2491H32.0499ZM32.0499 32.4871V30.2692H41.9115V32.4871H32.0499ZM42.4305 30.2692H46.3124L49.8266 34.1154L50.78 34.733L55.847 40.3199H51.9923L48.41 36.4175L47.443 35.7437L42.4305 30.2692ZM55.6427 30.2692L51.0388 35.5612L48.7778 34.4944L52.3737 30.2692H55.6427ZM47.5792 34.5927L49.7585 35.7718L45.9038 40.3199H42.5259L47.5792 34.5927ZM70.4132 40.3199H67.1306L62.3224 31.7431L62.949 30.2692H65.0057L70.4132 40.3199ZM61.2464 30.2692H63.9706L58.6448 40.3199H55.8253L61.2464 30.2692ZM59.0671 38.5231V36.3193H67.2123V38.5231H59.0671ZM74.3426 30.2692H82.052V32.4871H74.3562L74.3426 30.2692ZM80.8534 40.3199V30.2692H84.0406V40.3199H80.8534ZM71.0328 37.9336C71.4595 37.9616 71.8182 37.9429 72.1088 37.8774C72.3994 37.8025 72.6355 37.6762 72.8171 37.4984C72.9987 37.3112 73.144 37.0726 73.253 36.7825C73.3438 36.5392 73.4164 36.221 73.4709 35.828C73.5345 35.4256 73.5844 34.953 73.6207 34.4102C73.6661 33.8674 73.7024 33.2498 73.7297 32.5572C73.7569 31.8647 73.7796 31.102 73.7978 30.2692H76.6718C76.6445 31.074 76.6127 31.8226 76.5764 32.5151C76.5401 33.2076 76.4947 33.8534 76.4402 34.4523C76.3948 35.0512 76.3358 35.6034 76.2632 36.1087C76.1996 36.6047 76.1133 37.0632 76.0044 37.4844C75.8591 38.102 75.6321 38.612 75.3233 39.0144C75.0237 39.4075 74.6604 39.7116 74.2337 39.9269C73.8069 40.1421 73.3211 40.2731 72.7762 40.3199C72.2405 40.3761 71.6593 40.3714 71.0328 40.3059V37.9336ZM96.5948 30.2692H100V40.3199H96.7855V32.1502L96.5948 30.2692ZM86.4201 30.2692H89.6209V38.102L89.798 40.3199H86.4201V30.2692ZM89.907 40.3199H86.8151L87.2918 39.5198L96.4858 30.2692H99.605L99.2645 30.9851L89.907 40.3199Z" fill="#AEAEB2"/>
</g>
<defs>
<clipPath id="clip0_45_125">
<rect width="100" height="11.1111" fill="white" transform="translate(0 30.1428)"/>
</clipPath>
</defs>
</svg>
