<svg width="160" height="66" viewBox="0 0 160 66" fill="none" xmlns="http://www.w3.org/2000/svg">
<path d="M58.0978 31.8615H102.363V23.1977H69.8263V18.6131H99.9617V13.2484H69.8263V8.66374H102.363V0H58.0978V31.8615Z" fill="white"/>
<path d="M49.3528 31.952V0H37.6433V23.2638H11.7094V0H0V31.952H44.0852L44.0963 40.6349H55.7925V31.952H49.3528Z" fill="white"/>
<path d="M148.86 0L134.409 9.75025L119.959 0H108.818V8.66374H114.442L125.23 15.9434L114.48 23.1977H108.818V31.8615H119.998L134.409 22.1364L148.822 31.8615H160V23.1977H154.338L143.587 15.9434L154.376 8.66374H160V0H148.86Z" fill="white"/>
<g clip-path="url(#clip0_1_1160)">
<path d="M15.1245 48.1096H20.2241V64.1908H15.1245V48.1096ZM0 48.1096H5.12142V64.1908H0V48.1096ZM2.15753 51.6582V48.1096H16.8462V51.6582H2.15753ZM35.0543 64.4154C33.3108 64.4154 31.7054 64.2432 30.238 63.8988C28.7706 63.5544 27.492 63.0453 26.4024 62.3716C25.3272 61.6978 24.4846 60.8593 23.8744 59.8561C23.2787 58.8379 22.9808 57.655 22.9808 56.3074C22.9808 54.9598 23.2714 53.7694 23.8526 52.7363C24.4482 51.6882 25.2837 50.8122 26.3588 50.1085C27.4339 49.3898 28.7052 48.8433 30.1726 48.4689C31.64 48.0946 33.2673 47.9074 35.0543 47.9074C36.7832 47.9074 38.3814 48.0871 39.8488 48.4465C41.3162 48.7909 42.602 49.3074 43.7062 49.9962C44.8104 50.685 45.6604 51.5384 46.256 52.5566C46.8662 53.5598 47.1714 54.7352 47.1714 56.0828C47.1714 57.4304 46.8662 58.6208 46.256 59.6539C45.6604 60.6871 44.8104 61.5555 43.7062 62.2593C42.602 62.963 41.3162 63.502 39.8488 63.8764C38.3814 64.2357 36.7832 64.4154 35.0543 64.4154ZM35.0325 60.7994C36.4127 60.7994 37.6041 60.6496 38.6066 60.3502C39.6236 60.0357 40.4154 59.5341 40.9821 58.8454C41.5632 58.1566 41.8538 57.2657 41.8538 56.1726C41.8538 55.3341 41.6867 54.6229 41.3526 54.039C41.0329 53.44 40.568 52.9609 39.9578 52.6015C39.3621 52.2272 38.6429 51.9502 37.8003 51.7705C36.9721 51.5908 36.0568 51.501 35.0543 51.501C34.0082 51.501 33.0638 51.5908 32.2212 51.7705C31.393 51.9502 30.6884 52.2272 30.1072 52.6015C29.5406 52.9609 29.0975 53.44 28.7778 54.039C28.4727 54.6229 28.3202 55.3341 28.3202 56.1726C28.3202 57.2657 28.6035 58.1566 29.1701 58.8454C29.7367 59.5341 30.5213 60.0357 31.5238 60.3502C32.5408 60.6496 33.7104 60.7994 35.0325 60.7994ZM49.9287 48.1096H55.0937V64.1908H49.9287V48.1096ZM51.2799 64.1908V60.6421H67.211V64.1908H51.2799ZM51.2799 57.6775V54.1513H65.2932V57.6775H51.2799ZM51.2799 51.6582V48.1096H67.0584V51.6582H51.2799ZM67.8888 48.1096H74.0999L79.7225 54.2636L81.2481 55.2518L89.3552 64.1908H83.1877L77.4561 57.947L75.9087 56.8689L67.8888 48.1096ZM89.0283 48.1096L81.6622 56.5769L78.0445 54.87L83.7979 48.1096H89.0283ZM76.1267 55.0272L79.6136 56.9138L73.4461 64.1908H68.0414L76.1267 55.0272ZM112.661 64.1908H107.409L99.7159 50.4679L100.718 48.1096H104.009L112.661 64.1908ZM97.9942 48.1096H102.353L93.8317 64.1908H89.3205L97.9942 48.1096ZM94.5073 61.3159V57.7898H107.54V61.3159H94.5073ZM118.948 48.1096H131.283V51.6582H118.97L118.948 48.1096ZM129.365 64.1908V48.1096H134.465V64.1908H129.365ZM113.652 60.3726C114.335 60.4175 114.909 60.3876 115.374 60.2828C115.839 60.163 116.217 59.9609 116.507 59.6764C116.798 59.3769 117.03 58.9951 117.205 58.5309C117.35 58.1416 117.466 57.6325 117.553 57.0037C117.655 56.3598 117.735 55.6037 117.793 54.7352C117.866 53.8668 117.924 52.8785 117.967 51.7705C118.011 50.6625 118.047 49.4422 118.076 48.1096H122.675C122.631 49.3973 122.58 50.5951 122.522 51.7031C122.464 52.8112 122.392 53.8443 122.304 54.8026C122.232 55.7609 122.137 56.6443 122.021 57.4529C121.919 58.2464 121.781 58.9801 121.607 59.6539C121.375 60.6421 121.011 61.4582 120.517 62.102C120.038 62.7309 119.457 63.2175 118.774 63.5619C118.091 63.9063 117.314 64.1159 116.442 64.1908C115.585 64.2806 114.655 64.2731 113.652 64.1683V60.3726ZM154.552 48.1096H160V64.1908H154.857V51.1192L154.552 48.1096ZM138.272 48.1096H143.394V60.6421L143.677 64.1908H138.272V48.1096ZM143.851 64.1908H138.904L139.667 62.9106L154.377 48.1096H159.368L158.823 49.255L143.851 64.1908Z" fill="white"/>
</g>
<defs>
<clipPath id="clip0_1_1160">
<rect width="160" height="17.7778" fill="white" transform="translate(0 47.9074)"/>
</clipPath>
</defs>
</svg>
